<svg xmlns="http://www.w3.org/2000/svg" width="980" height="500" viewBox="0 0 980 500">
<rect width="100%" height="100%" fill="#f7f4ed"/>
<text x="50" y="48" font-family="sans-serif" font-size="26" font-weight="700" fill="#17212b">FAST-like：让平滑动作变成更短的 token 序列</text>
<text x="80" y="80" font-family="sans-serif" font-size="15" fill="#4b5563">每个 action chunk 的序列长度</text>
<line x1="60" y1="370" x2="440" y2="370" stroke="#9ca3af"/>
<rect x="110" y="100.0" width="120" height="270.0" rx="8" fill="#dd6b55"/>
<rect x="290" y="310.6" width="120" height="59.4" rx="8" fill="#287c78"/>
<text x="170" y="92" text-anchor="middle" font-family="sans-serif" font-size="18" font-weight="700">140</text>
<text x="350" y="300.6" text-anchor="middle" font-family="sans-serif" font-size="18" font-weight="700">30.8</text>
<text x="170" y="400" text-anchor="middle" font-family="sans-serif" font-size="15">逐标量 / DCT 系数</text>
<text x="350" y="400" text-anchor="middle" font-family="sans-serif" font-size="15">DCT + BPE</text>
<text x="260" y="442" text-anchor="middle" font-family="sans-serif" font-size="17" font-weight="700" fill="#287c78">压缩 4.54×</text>
<text x="520" y="80" font-family="sans-serif" font-size="15" fill="#4b5563">第 0 个动作维度：原始与解码结果</text>
<line x1="520" y1="370" x2="920" y2="370" stroke="#9ca3af"/>
<polyline points="520.0,209.1 541.1,198.2 562.1,173.0 583.2,147.7 604.2,136.3 625.3,147.1 646.3,179.1 667.4,222.1 688.4,261.5 709.5,284.2 730.5,283.9 751.6,264.4 772.6,237.2 793.7,217.3 814.7,216.6 835.8,238.7 856.8,277.9 877.9,321.0 898.9,353.3 920.0,364.7" fill="none" stroke="#dd6b55" stroke-width="4"/>
<polyline points="520.0,221.1 541.1,199.7 562.1,167.2 583.2,139.3 604.2,130.0 625.3,145.1 646.3,180.0 667.4,222.1 688.4,256.5 709.5,272.9 730.5,269.3 751.6,252.3 772.6,233.2 793.7,223.4 814.7,229.8 835.8,252.6 856.8,286.5 877.9,323.0 898.9,353.1 920.0,370.0" fill="none" stroke="#287c78" stroke-width="3" stroke-dasharray="8 5"/>
<circle cx="545" cy="420" r="6" fill="#dd6b55"/><text x="558" y="425" font-family="sans-serif" font-size="14">原始动作</text>
<line x1="680" y1="420" x2="700" y2="420" stroke="#287c78" stroke-width="3" stroke-dasharray="7 4"/><text x="710" y="425" font-family="sans-serif" font-size="14">FAST-like 解码</text>
<text x="720" y="462" text-anchor="middle" font-family="sans-serif" font-size="15">验证集 MAE = 0.0210</text>
</svg>
